<svg width="500" height="400" viewBox="0 0 500 400" fill="none" xmlns="http://www.w3.org/2000/svg">
<rect width="500" height="400" fill="#F5F5F5"/>
<rect width="500" height="400" fill="white"/>
<g filter="url(#filter0_i_0_1)">
<path d="M250 69.6289C280.58 69.6289 305.371 94.4196 305.371 125C305.371 155.58 280.58 180.371 250 180.371C219.42 180.371 194.629 155.58 194.629 125C194.629 94.4196 219.42 69.6289 250 69.6289Z" fill="white" stroke="#B0DC99" stroke-width="17.2584"/>
<path d="M229.146 121.689L254.855 147.292L298.18 104.146" stroke="#B0DC99" stroke-width="17.2584"/>
<path d="M223.825 103.427C230.647 103.427 236.481 108.737 236.481 115.651C236.481 122.566 230.647 127.876 223.825 127.876C217.002 127.876 211.168 122.566 211.168 115.651C211.169 108.737 217.002 103.427 223.825 103.427Z" fill="white" stroke="white" stroke-width="7.19101"/>
</g>
<g filter="url(#filter1_d_0_1)">
<path d="M36.4453 236.77V237.789C36.4453 239.828 36.4219 241.797 36.375 243.695C36.3281 245.57 36.2695 247.422 36.1992 249.25C36.1523 251.078 36.1055 252.883 36.0586 254.664C36.0117 256.445 35.9766 258.238 35.9531 260.043L44.0742 264.578H25.1602L31.4883 260.254C30.9727 255.52 30.5625 251.23 30.2578 247.387C29.9766 243.52 29.7656 240.273 29.625 237.648L24.4922 238.211L29.3438 230.512C29.5078 228.309 29.8477 226.281 30.3633 224.43C30.8789 222.555 31.6055 220.938 32.543 219.578C33.5039 218.219 34.6992 217.164 36.1289 216.414C37.5586 215.641 39.2812 215.254 41.2969 215.254C42 215.254 42.7266 215.324 43.4766 215.465C44.2266 215.582 44.9531 215.77 45.6562 216.027C46.3828 216.285 47.0625 216.613 47.6953 217.012C48.3281 217.41 48.8555 217.879 49.2773 218.418L54.9727 214.234L49.418 228.297C49.3711 226.867 49.1836 225.648 48.8555 224.641C48.5508 223.609 48.1641 222.754 47.6953 222.074C47.25 221.395 46.7578 220.867 46.2188 220.492C45.6797 220.094 45.1758 219.801 44.707 219.613C44.2383 219.402 43.8398 219.273 43.5117 219.227C43.1836 219.156 42.9961 219.121 42.9492 219.121C41.8242 219.191 40.8867 219.555 40.1367 220.211C39.3867 220.867 38.7656 221.77 38.2734 222.918C37.8047 224.066 37.4414 225.438 37.1836 227.031C36.9258 228.602 36.7266 230.336 36.5859 232.234H49.418L46.8164 235.469L36.4453 236.77ZM80.6719 230.793L82.043 261.027L88.3711 263.98L73.957 266.652L74.625 256.352C73.9688 257.734 73.2188 259.059 72.375 260.324C71.5312 261.566 70.582 262.668 69.5273 263.629C68.4727 264.566 67.3125 265.316 66.0469 265.879C64.8047 266.441 63.457 266.723 62.0039 266.723C60.2695 266.723 58.7461 266.418 57.4336 265.809C56.1211 265.199 55.0195 264.367 54.1289 263.312C53.2383 262.234 52.5586 260.98 52.0898 259.551C51.6445 258.098 51.4219 256.551 51.4219 254.91C51.4219 253.387 51.5391 251.805 51.7734 250.164C52.0078 248.523 52.3242 246.906 52.7227 245.312C53.1445 243.695 53.6367 242.137 54.1992 240.637C54.7852 239.113 55.418 237.707 56.0977 236.418L48.6797 234.695L62.6016 229.949C61.7109 232.316 61.0195 234.59 60.5273 236.77C60.0586 238.926 59.707 240.848 59.4727 242.535C59.2148 244.504 59.0508 246.332 58.9805 248.02C58.9805 250.199 59.1328 252.086 59.4375 253.68C59.7422 255.25 60.1641 256.562 60.7031 257.617C61.2422 258.648 61.8867 259.422 62.6367 259.938C63.3867 260.43 64.207 260.676 65.0977 260.676C66.457 260.676 67.6758 260.312 68.7539 259.586C69.832 258.859 70.7812 257.887 71.6016 256.668C72.4453 255.426 73.1602 253.984 73.7461 252.344C74.3555 250.703 74.8477 248.969 75.2227 247.141C75.6211 245.312 75.9141 243.449 76.1016 241.551C76.2891 239.652 76.3945 237.824 76.418 236.066L68.7891 230.793H80.6719ZM120.926 243.168C120.926 244.48 120.867 245.863 120.75 247.316C120.633 248.77 120.457 250.223 120.223 251.676C119.988 253.129 119.695 254.547 119.344 255.93C119.016 257.312 118.629 258.578 118.184 259.727L125.109 261.977L106.793 265.562L113.016 260.887C113.508 259.082 113.836 257.348 114 255.684C114.188 254.02 114.281 252.449 114.281 250.973C114.281 250.082 114.246 249.074 114.176 247.949C114.129 246.801 114 245.641 113.789 244.469C113.602 243.297 113.32 242.148 112.945 241.023C112.594 239.898 112.125 238.902 111.539 238.035C110.953 237.145 110.227 236.441 109.359 235.926C108.516 235.387 107.496 235.117 106.301 235.117C104.918 235.117 103.512 235.574 102.082 236.488C100.652 237.402 99.3281 238.75 98.1094 240.531V259.973L103.91 264.121L86.5078 265.352L91.1133 260.254L93.5742 234.695L86.0859 231.004L98.1094 229.809V235.117C98.7891 234.18 99.5391 233.301 100.359 232.48C101.18 231.66 102.047 230.957 102.961 230.371C103.875 229.762 104.824 229.293 105.809 228.965C106.816 228.613 107.848 228.438 108.902 228.438C110.941 228.438 112.711 228.812 114.211 229.562C115.711 230.312 116.953 231.355 117.938 232.691C118.945 234.004 119.695 235.562 120.188 237.367C120.68 239.148 120.926 241.082 120.926 243.168ZM184.523 217.188L181.781 237.789L177.738 222.742L166.945 223.973L168.387 259.094L177.105 263.559L149.016 266.23L159.246 258.812L161.039 224.324L149.895 223.902L145.57 236.699L144.199 217.785L184.523 217.188ZM234.059 240.145C234.059 244.059 233.449 247.562 232.23 250.656C231.035 253.727 229.395 256.328 227.309 258.461C225.223 260.57 222.785 262.188 219.996 263.312C217.23 264.438 214.277 265 211.137 265C209.074 265 207.047 264.754 205.055 264.262C203.086 263.77 201.211 263.055 199.43 262.117C197.672 261.18 196.043 260.043 194.543 258.707C193.043 257.348 191.754 255.801 190.676 254.066C189.598 252.309 188.754 250.387 188.145 248.301C187.535 246.191 187.23 243.93 187.23 241.516C187.23 237.766 187.84 234.309 189.059 231.145C190.301 227.957 192.012 225.203 194.191 222.883C196.395 220.562 198.984 218.746 201.961 217.434C204.961 216.121 208.219 215.465 211.734 215.465C214.688 215.465 217.512 216.016 220.207 217.117C222.902 218.195 225.27 219.789 227.309 221.898C229.371 224.008 231.012 226.598 232.23 229.668C233.449 232.715 234.059 236.207 234.059 240.145ZM224.602 240.812C224.602 237.906 224.109 235.363 223.125 233.184C222.141 230.98 220.863 229.141 219.293 227.664C217.723 226.188 215.941 225.086 213.949 224.359C211.957 223.609 209.965 223.234 207.973 223.234C205.676 223.234 203.543 223.656 201.574 224.5C199.605 225.344 197.895 226.562 196.441 228.156C194.988 229.727 193.84 231.648 192.996 233.922C192.176 236.172 191.766 238.703 191.766 241.516C191.766 244.188 192.176 246.566 192.996 248.652C193.816 250.738 194.941 252.508 196.371 253.961C197.801 255.391 199.465 256.492 201.363 257.266C203.285 258.016 205.324 258.391 207.48 258.391C209.66 258.391 211.77 258.016 213.809 257.266C215.871 256.492 217.699 255.367 219.293 253.891C220.91 252.391 222.199 250.551 223.16 248.371C224.121 246.168 224.602 243.648 224.602 240.812ZM245.273 265.281C241.594 265.281 237.855 265 234.059 264.438L243.621 260.043L246.855 223.727L235.992 218.84C238.266 218.324 240.574 217.926 242.918 217.645C245.262 217.34 247.418 217.117 249.387 216.977C251.66 216.812 253.875 216.719 256.031 216.695C257.625 216.695 259.266 216.883 260.953 217.258C262.664 217.633 264.328 218.23 265.945 219.051C267.562 219.848 269.086 220.879 270.516 222.145C271.945 223.41 273.188 224.922 274.242 226.68C275.32 228.438 276.176 230.465 276.809 232.762C277.441 235.035 277.758 237.602 277.758 240.461C277.758 243.625 277.301 246.438 276.387 248.898C275.473 251.359 274.219 253.504 272.625 255.332C271.055 257.16 269.215 258.719 267.105 260.008C264.996 261.273 262.734 262.293 260.32 263.066C257.906 263.84 255.41 264.402 252.832 264.754C250.277 265.105 247.758 265.281 245.273 265.281ZM269.566 239.09C269.566 237.895 269.473 236.617 269.285 235.258C269.121 233.898 268.828 232.551 268.406 231.215C267.984 229.879 267.422 228.602 266.719 227.383C266.016 226.141 265.137 225.051 264.082 224.113C263.051 223.176 261.82 222.426 260.391 221.863C258.961 221.301 257.309 221.02 255.434 221.02C254.449 221.02 253.418 221.09 252.34 221.23V260.605C255.527 260.16 258.211 259.328 260.391 258.109C262.594 256.891 264.375 255.355 265.734 253.504C267.094 251.629 268.066 249.484 268.652 247.07C269.262 244.633 269.566 241.973 269.566 239.09ZM328.84 240.145C328.84 244.059 328.23 247.562 327.012 250.656C325.816 253.727 324.176 256.328 322.09 258.461C320.004 260.57 317.566 262.188 314.777 263.312C312.012 264.438 309.059 265 305.918 265C303.855 265 301.828 264.754 299.836 264.262C297.867 263.77 295.992 263.055 294.211 262.117C292.453 261.18 290.824 260.043 289.324 258.707C287.824 257.348 286.535 255.801 285.457 254.066C284.379 252.309 283.535 250.387 282.926 248.301C282.316 246.191 282.012 243.93 282.012 241.516C282.012 237.766 282.621 234.309 283.84 231.145C285.082 227.957 286.793 225.203 288.973 222.883C291.176 220.562 293.766 218.746 296.742 217.434C299.742 216.121 303 215.465 306.516 215.465C309.469 215.465 312.293 216.016 314.988 217.117C317.684 218.195 320.051 219.789 322.09 221.898C324.152 224.008 325.793 226.598 327.012 229.668C328.23 232.715 328.84 236.207 328.84 240.145ZM319.383 240.812C319.383 237.906 318.891 235.363 317.906 233.184C316.922 230.98 315.645 229.141 314.074 227.664C312.504 226.188 310.723 225.086 308.73 224.359C306.738 223.609 304.746 223.234 302.754 223.234C300.457 223.234 298.324 223.656 296.355 224.5C294.387 225.344 292.676 226.562 291.223 228.156C289.77 229.727 288.621 231.648 287.777 233.922C286.957 236.172 286.547 238.703 286.547 241.516C286.547 244.188 286.957 246.566 287.777 248.652C288.598 250.738 289.723 252.508 291.152 253.961C292.582 255.391 294.246 256.492 296.145 257.266C298.066 258.016 300.105 258.391 302.262 258.391C304.441 258.391 306.551 258.016 308.59 257.266C310.652 256.492 312.48 255.367 314.074 253.891C315.691 252.391 316.98 250.551 317.941 248.371C318.902 246.168 319.383 243.648 319.383 240.812ZM388.57 263.418L348.176 265L357.105 257.23L359.215 223.234L349.547 218.207L372.961 216.695L365.543 221.723L365.965 257.371L382.242 259.375L388.57 247.492V263.418ZM391.207 265.352L396.727 261.027L395.531 236.77L389.027 232.516L404.145 229.949L401.438 258.145L408.996 262.855L391.207 265.352ZM404.531 221.441C404.531 222.145 404.391 222.812 404.109 223.445C403.828 224.055 403.441 224.605 402.949 225.098C402.457 225.566 401.895 225.941 401.262 226.223C400.629 226.48 399.961 226.609 399.258 226.609C398.508 226.609 397.805 226.48 397.148 226.223C396.516 225.941 395.965 225.566 395.496 225.098C395.027 224.605 394.652 224.055 394.371 223.445C394.09 222.812 393.949 222.145 393.949 221.441C393.949 220.715 394.09 220.047 394.371 219.438C394.652 218.805 395.027 218.254 395.496 217.785C395.965 217.316 396.516 216.953 397.148 216.695C397.805 216.414 398.508 216.273 399.258 216.273C399.961 216.273 400.629 216.414 401.262 216.695C401.895 216.953 402.457 217.316 402.949 217.785C403.441 218.254 403.828 218.805 404.109 219.438C404.391 220.047 404.531 220.715 404.531 221.441ZM423.727 229.211C424.617 229.211 425.52 229.293 426.434 229.457C427.348 229.598 428.238 229.82 429.105 230.125C429.996 230.406 430.828 230.758 431.602 231.18C432.398 231.578 433.113 232.023 433.746 232.516L439.512 225.414L436.91 242.957C436.629 241.738 436.137 240.543 435.434 239.371C434.73 238.176 433.852 237.109 432.797 236.172C431.766 235.234 430.57 234.484 429.211 233.922C427.852 233.336 426.363 233.043 424.746 233.043C423.855 233.043 423 233.148 422.18 233.359C421.359 233.547 420.633 233.863 420 234.309C419.391 234.754 418.898 235.316 418.523 235.996C418.172 236.676 417.996 237.484 417.996 238.422C417.996 239.547 418.301 240.461 418.91 241.164C419.543 241.867 420.363 242.465 421.371 242.957C422.379 243.426 423.527 243.836 424.816 244.188C426.105 244.516 427.43 244.867 428.789 245.242C430.148 245.617 431.473 246.062 432.762 246.578C434.051 247.07 435.199 247.715 436.207 248.512C437.215 249.309 438.023 250.305 438.633 251.5C439.266 252.672 439.582 254.125 439.582 255.859C439.582 257.805 439.195 259.469 438.422 260.852C437.672 262.211 436.699 263.336 435.504 264.227C434.309 265.094 432.984 265.727 431.531 266.125C430.078 266.523 428.66 266.723 427.277 266.723C426.152 266.723 425.027 266.605 423.902 266.371C422.777 266.137 421.688 265.809 420.633 265.387C419.578 264.965 418.57 264.461 417.609 263.875C416.672 263.289 415.816 262.656 415.043 261.977L409.699 269.113L411.352 251.676C412.102 253.27 413.004 254.758 414.059 256.141C415.113 257.523 416.285 258.73 417.574 259.762C418.863 260.77 420.246 261.566 421.723 262.152C423.199 262.715 424.734 262.996 426.328 262.996C428.18 262.996 429.656 262.609 430.758 261.836C431.883 261.039 432.445 259.914 432.445 258.461C432.445 257.523 432.129 256.75 431.496 256.141C430.887 255.508 430.066 254.957 429.035 254.488C428.027 254.02 426.879 253.598 425.59 253.223C424.301 252.848 422.977 252.438 421.617 251.992C420.258 251.547 418.934 251.031 417.645 250.445C416.355 249.836 415.195 249.086 414.164 248.195C413.156 247.281 412.336 246.18 411.703 244.891C411.094 243.578 410.789 241.996 410.789 240.145C410.789 238.551 411.023 237.168 411.492 235.996C411.961 234.824 412.57 233.84 413.32 233.043C414.094 232.223 414.949 231.566 415.887 231.074C416.848 230.559 417.809 230.172 418.77 229.914C419.73 229.633 420.645 229.445 421.512 229.352C422.379 229.258 423.117 229.211 423.727 229.211ZM445.98 249.602C445.98 247.398 446.203 245.207 446.648 243.027C447.117 240.824 447.621 238.809 448.16 236.98L442.078 237.367L459.234 218.629C457.875 222.918 456.773 226.785 455.93 230.23L469.605 231.391L467.812 235.609L454.559 236.559C454.23 238.27 453.973 239.793 453.785 241.129C453.621 242.441 453.48 243.555 453.363 244.469C453.246 245.547 453.164 246.484 453.117 247.281C453.117 249.625 453.258 251.734 453.539 253.609C453.82 255.484 454.254 257.09 454.84 258.426C455.449 259.738 456.211 260.758 457.125 261.484C458.062 262.188 459.176 262.539 460.465 262.539C461.66 262.539 462.656 262.305 463.453 261.836C464.273 261.344 464.93 260.723 465.422 259.973C465.914 259.199 466.266 258.344 466.477 257.406C466.688 256.445 466.793 255.496 466.793 254.559C466.793 253.691 466.723 252.848 466.582 252.027C467.59 252.543 468.352 253.375 468.867 254.523C469.406 255.648 469.676 256.879 469.676 258.215C469.676 259.598 469.441 260.816 468.973 261.871C468.527 262.926 467.906 263.816 467.109 264.543C466.312 265.246 465.375 265.785 464.297 266.16C463.219 266.535 462.059 266.723 460.816 266.723C460.066 266.723 459.176 266.641 458.145 266.477C457.137 266.312 456.082 266.008 454.98 265.562C453.879 265.141 452.789 264.531 451.711 263.734C450.633 262.938 449.672 261.906 448.828 260.641C447.984 259.375 447.293 257.84 446.754 256.035C446.238 254.207 445.98 252.062 445.98 249.602Z" fill="black"/>
</g>
<defs>
<filter id="filter0_i_0_1" x="186" y="61" width="128" height="144" filterUnits="userSpaceOnUse" color-interpolation-filters="sRGB">
<feFlood flood-opacity="0" result="BackgroundImageFix"/>
<feBlend mode="normal" in="SourceGraphic" in2="BackgroundImageFix" result="shape"/>
<feColorMatrix in="SourceAlpha" type="matrix" values="0 0 0 0 0 0 0 0 0 0 0 0 0 0 0 0 0 0 127 0" result="hardAlpha"/>
<feMorphology radius="8" operator="dilate" in="SourceAlpha" result="effect1_innerShadow_0_1"/>
<feOffset dy="16"/>
<feGaussianBlur stdDeviation="16"/>
<feComposite in2="hardAlpha" operator="arithmetic" k2="-1" k3="1"/>
<feColorMatrix type="matrix" values="0 0 0 0 0.0470588 0 0 0 0 0.0470588 0 0 0 0 0.0509804 0 0 0 0.4 0"/>
<feBlend mode="normal" in2="shape" result="effect1_innerShadow_0_1"/>
</filter>
<filter id="filter1_d_0_1" x="20" y="200" width="460" height="92" filterUnits="userSpaceOnUse" color-interpolation-filters="sRGB">
<feFlood flood-opacity="0" result="BackgroundImageFix"/>
<feColorMatrix in="SourceAlpha" type="matrix" values="0 0 0 0 0 0 0 0 0 0 0 0 0 0 0 0 0 0 127 0" result="hardAlpha"/>
<feOffset dy="4"/>
<feGaussianBlur stdDeviation="2"/>
<feComposite in2="hardAlpha" operator="out"/>
<feColorMatrix type="matrix" values="0 0 0 0 0 0 0 0 0 0 0 0 0 0 0 0 0 0 0.25 0"/>
<feBlend mode="normal" in2="BackgroundImageFix" result="effect1_dropShadow_0_1"/>
<feBlend mode="normal" in="SourceGraphic" in2="effect1_dropShadow_0_1" result="shape"/>
</filter>
</defs>
</svg>
